<svg width="3986" height="4387" viewBox="0 0 3986 4387" fill="none" xmlns="http://www.w3.org/2000/svg">
<path d="M1236.9 1040.18L3371.9 2263.18L3659.57 2460.79C3681.57 2475.9 3700.31 2495.25 3714.71 2517.72L3820.98 2683.51C3832.52 2701.51 3841.09 2721.24 3846.38 2741.95L3878.86 2869.1C3887.09 2901.31 3887.15 2935.07 3879.05 2967.32L3841.98 3114.91C3839.59 3124.41 3836.51 3133.73 3832.76 3142.78L3774.09 3284.3C3762.13 3313.15 3743.57 3338.8 3719.92 3359.2L3615.81 3448.93C3591.24 3470.11 3561.88 3485 3530.27 3492.31L3250.56 3556.96C3205.21 3567.45 3157.62 3561.78 3116 3540.95L2729.1 3347.3C2705.26 3335.37 2677.02 3336.28 2654.01 3349.72C2630.6 3363.39 2615.85 3388.12 2614.94 3415.21L2601.99 3801.66C2600.78 3837.67 2589.87 3872.69 2570.41 3903.01L2468.52 4061.71C2453.92 4084.46 2434.87 4104 2412.5 4119.18L2277.44 4210.8C2257.57 4224.28 2235.44 4234.07 2212.1 4239.7L2041.63 4280.86C2013.48 4287.66 1984.18 4288.26 1955.78 4282.63L1759.08 4243.61C1718.31 4235.53 1681.07 4214.94 1652.54 4184.71L1475.8 3997.43C1450.05 3970.15 1432.49 3936.17 1425.14 3899.39L1363.78 3592.6C1361.2 3579.69 1359.9 3566.55 1359.9 3553.38V697.958C1359.9 666.868 1367.14 636.207 1381.06 608.408L1505.15 360.607C1520.39 330.161 1543.16 304.112 1571.29 284.926L1791.45 134.771C1838.21 102.882 1896.29 92.2961 1951.29 105.638L2291.55 188.175C2341.81 200.369 2385.4 231.565 2413.16 275.212L2556.43 500.492C2574.45 528.828 2585.05 561.246 2587.24 594.755L2600.15 791.931L2614.18 1006.32C2615.6 1028.07 2625.27 1048.46 2641.21 1063.33C2670.31 1090.48 2714.28 1094 2747.32 1071.83L2942.38 940.966C2958.96 929.839 2977.12 921.259 2996.25 915.512L3152.24 868.641C3170.91 863.031 3190.3 860.181 3209.79 860.181H3361.59C3397.15 860.181 3432.07 869.663 3462.75 887.65L3674.36 1011.72C3706.1 1030.33 3732.09 1057.34 3749.48 1089.77L3823.77 1228.39C3833.46 1246.48 3840.32 1265.95 3844.09 1286.12L3882.39 1491.01C3888.31 1522.66 3886.5 1555.26 3877.11 1586.06L3823.11 1763.26C3810.94 1803.2 3786.57 1838.34 3753.42 1863.73L3542.41 2025.36C3534.75 2031.23 3526.66 2036.54 3518.23 2041.25L1482.9 3176.68L1165.54 3405.49C1150.19 3416.56 1133.34 3425.4 1115.51 3431.73L891.868 3511.15C870.379 3518.78 847.742 3522.68 824.938 3522.68H569.854C528.563 3522.68 488.285 3509.9 454.547 3486.1L315.167 3387.75C300.06 3377.09 286.503 3364.38 274.886 3350L169.362 3219.35C146.801 3191.42 132.176 3157.93 127.022 3122.4L102.072 2950.41C98.9755 2929.07 99.3525 2907.36 103.189 2886.13L129.377 2741.22C133.035 2720.98 139.792 2701.43 149.411 2683.25L220.198 2549.47C238.588 2514.72 266.815 2486.15 301.349 2467.35L628.26 2289.39C657.93 2273.23 676.396 2242.16 676.396 2208.37C676.396 2175.99 659.415 2145.98 631.655 2129.3L417.968 2000.94C401.67 1991.15 386.852 1979.09 373.96 1965.11L205.231 1782.23C183.972 1759.19 168.429 1731.47 159.854 1701.32L108.915 1522.19C101.319 1495.48 99.3695 1467.48 103.19 1439.97L126.471 1272.35C131.962 1232.81 149.158 1195.82 175.846 1166.14L348.424 974.199C377.603 941.747 416.595 919.729 459.454 911.504L684.877 868.245C712.576 862.929 741.087 863.533 768.538 870.015L976.404 919.105C990.689 922.479 1004.56 927.415 1017.76 933.824L1236.9 1040.18Z" stroke="black" stroke-width="200" stroke-linejoin="round"/>
</svg>
